<svg width="49" height="49" viewBox="0 0 49 49" fill="none" xmlns="http://www.w3.org/2000/svg">
<path d="M17.1998 10.721C17.0639 10.9822 16.949 11.1285 16.9176 11.2957C16.5309 13.5008 15.9039 15.6327 14.7125 17.5556C12.7687 20.6804 9.86348 22.3838 6.31029 22.9795C4.93082 23.2094 3.50954 23.2408 2.10916 23.3453C1.76429 23.3766 1.41942 23.3453 0.980499 23.3453C1.38807 15.1729 4.7427 8.60995 11.5983 4.22071C19.7393 -1.00457 28.2878 -1.19269 36.6378 3.68773C44.016 8.01427 47.6423 14.7862 48.1126 23.3662C47.8618 23.3871 47.6945 23.408 47.5273 23.408C43.483 23.408 39.4491 23.4393 35.4047 23.3766C32.3949 23.3244 29.3956 23.1049 26.459 22.3211C21.9966 21.1193 19.1958 18.2663 17.9627 13.8457C17.691 12.8738 17.482 11.8914 17.1998 10.721Z" fill="#FFFFFF"/>
<path d="M17.2416 37.5998C17.4715 36.6279 17.6805 35.6351 17.9522 34.6737C18.7987 31.7162 20.3036 29.2289 23.0312 27.6091C24.9228 26.4909 26.992 25.937 29.1448 25.613C33.5549 24.9442 37.9964 25.0905 42.4379 25.0801C44.0891 25.0801 45.7507 25.0801 47.4019 25.0801C47.59 25.0801 47.7782 25.0801 48.0812 25.0801C47.7991 32.3641 44.9565 38.3209 39.3759 42.9401C32.2277 48.8551 21.6831 49.8479 13.4794 45.4482C4.79496 40.7873 1.0014 32.1133 1.0641 25.1846C1.94195 25.1846 2.8198 25.1532 3.69765 25.195C5.94452 25.2995 8.11824 25.728 10.1456 26.7417C13.1763 28.2675 15.0679 30.7652 16.1025 33.9421C16.4578 35.029 16.6564 36.1681 16.9281 37.2759C16.9594 37.4117 17.0639 37.5371 17.1371 37.6625C17.1684 37.6416 17.2102 37.6207 17.2416 37.5998Z" fill="#FFFFFF"/>
</svg>
